<mxfile host="app.diagrams.net" modified="2022-02-14T07:57:07.057Z" agent="5.0 (Windows NT 10.0; Win64; x64) AppleWebKit/537.36 (KHTML, like Gecko) Chrome/98.0.4758.82 Safari/537.36" etag="ohQikWBSCj_OpeoRNjq0" version="16.5.6" type="github">
  <diagram id="LBoecrUMherwDFw24Pa9" name="Page-1">
    <mxGraphModel dx="782" dy="436" grid="1" gridSize="10" guides="1" tooltips="1" connect="1" arrows="1" fold="1" page="1" pageScale="1" pageWidth="850" pageHeight="1100" math="0" shadow="0">
      <root>
        <mxCell id="0" />
        <mxCell id="1" parent="0" />
        <mxCell id="fqFgPf6x8nLVEVHRykZo-2" value="User" style="ellipse;whiteSpace=wrap;html=1;" vertex="1" parent="1">
          <mxGeometry y="170" width="90" height="60" as="geometry" />
        </mxCell>
        <mxCell id="fqFgPf6x8nLVEVHRykZo-3" value="Web Broser" style="rounded=1;whiteSpace=wrap;html=1;" vertex="1" parent="1">
          <mxGeometry x="270" y="120" width="100" height="160" as="geometry" />
        </mxCell>
        <mxCell id="fqFgPf6x8nLVEVHRykZo-5" value="Core" style="rounded=1;whiteSpace=wrap;html=1;" vertex="1" parent="1">
          <mxGeometry x="480" y="160" width="160" height="80" as="geometry" />
        </mxCell>
        <mxCell id="fqFgPf6x8nLVEVHRykZo-6" value="" style="endArrow=classic;startArrow=none;html=1;rounded=0;exitX=1;exitY=0.5;exitDx=0;exitDy=0;entryX=0;entryY=0.5;entryDx=0;entryDy=0;" edge="1" parent="1" source="fqFgPf6x8nLVEVHRykZo-7" target="fqFgPf6x8nLVEVHRykZo-3">
          <mxGeometry width="50" height="50" relative="1" as="geometry">
            <mxPoint x="120" y="320" as="sourcePoint" />
            <mxPoint x="170" y="270" as="targetPoint" />
          </mxGeometry>
        </mxCell>
        <mxCell id="fqFgPf6x8nLVEVHRykZo-7" value="Http Request &amp;amp; Response&amp;nbsp;" style="text;html=1;align=center;verticalAlign=middle;resizable=0;points=[];autosize=1;strokeColor=none;fillColor=none;" vertex="1" parent="1">
          <mxGeometry x="100" y="190" width="160" height="20" as="geometry" />
        </mxCell>
        <mxCell id="fqFgPf6x8nLVEVHRykZo-8" value="" style="endArrow=none;startArrow=classic;html=1;rounded=0;exitX=1;exitY=0.5;exitDx=0;exitDy=0;entryX=0;entryY=0.5;entryDx=0;entryDy=0;" edge="1" parent="1" source="fqFgPf6x8nLVEVHRykZo-2" target="fqFgPf6x8nLVEVHRykZo-7">
          <mxGeometry width="50" height="50" relative="1" as="geometry">
            <mxPoint x="90" y="200" as="sourcePoint" />
            <mxPoint x="250" y="200" as="targetPoint" />
          </mxGeometry>
        </mxCell>
        <mxCell id="fqFgPf6x8nLVEVHRykZo-9" value="" style="endArrow=classic;html=1;rounded=0;exitX=1;exitY=0.5;exitDx=0;exitDy=0;entryX=0;entryY=0.5;entryDx=0;entryDy=0;" edge="1" parent="1" source="fqFgPf6x8nLVEVHRykZo-3" target="fqFgPf6x8nLVEVHRykZo-5">
          <mxGeometry width="50" height="50" relative="1" as="geometry">
            <mxPoint x="410" y="180" as="sourcePoint" />
            <mxPoint x="460" y="130" as="targetPoint" />
          </mxGeometry>
        </mxCell>
        <mxCell id="fqFgPf6x8nLVEVHRykZo-10" value="Request Ob" style="text;html=1;align=center;verticalAlign=middle;resizable=0;points=[];autosize=1;strokeColor=none;fillColor=none;" vertex="1" parent="1">
          <mxGeometry x="370" y="170" width="80" height="20" as="geometry" />
        </mxCell>
        <mxCell id="fqFgPf6x8nLVEVHRykZo-18" style="edgeStyle=orthogonalEdgeStyle;rounded=0;orthogonalLoop=1;jettySize=auto;html=1;entryX=0.011;entryY=0.638;entryDx=0;entryDy=0;entryPerimeter=0;exitX=0.5;exitY=1;exitDx=0;exitDy=0;" edge="1" parent="1" source="fqFgPf6x8nLVEVHRykZo-5" target="fqFgPf6x8nLVEVHRykZo-17">
          <mxGeometry relative="1" as="geometry">
            <Array as="points">
              <mxPoint x="560" y="495" />
            </Array>
          </mxGeometry>
        </mxCell>
        <mxCell id="fqFgPf6x8nLVEVHRykZo-11" value="Centralization" style="text;html=1;align=center;verticalAlign=middle;resizable=0;points=[];autosize=1;strokeColor=none;fillColor=none;" vertex="1" parent="1">
          <mxGeometry x="510" y="250" width="90" height="20" as="geometry" />
        </mxCell>
        <mxCell id="fqFgPf6x8nLVEVHRykZo-19" style="edgeStyle=orthogonalEdgeStyle;rounded=0;orthogonalLoop=1;jettySize=auto;html=1;" edge="1" parent="1" source="fqFgPf6x8nLVEVHRykZo-12" target="fqFgPf6x8nLVEVHRykZo-5">
          <mxGeometry relative="1" as="geometry" />
        </mxCell>
        <mxCell id="fqFgPf6x8nLVEVHRykZo-12" value="Dynamo DB" style="shape=cylinder3;whiteSpace=wrap;html=1;boundedLbl=1;backgroundOutline=1;size=15;" vertex="1" parent="1">
          <mxGeometry x="930" y="160" width="60" height="80" as="geometry" />
        </mxCell>
        <mxCell id="fqFgPf6x8nLVEVHRykZo-13" value="Replication" style="shape=cylinder3;whiteSpace=wrap;html=1;boundedLbl=1;backgroundOutline=1;size=15;" vertex="1" parent="1">
          <mxGeometry x="900" y="430" width="70" height="100" as="geometry" />
        </mxCell>
        <mxCell id="fqFgPf6x8nLVEVHRykZo-24" style="edgeStyle=orthogonalEdgeStyle;rounded=0;orthogonalLoop=1;jettySize=auto;html=1;" edge="1" parent="1" source="fqFgPf6x8nLVEVHRykZo-14" target="fqFgPf6x8nLVEVHRykZo-23">
          <mxGeometry relative="1" as="geometry" />
        </mxCell>
        <mxCell id="fqFgPf6x8nLVEVHRykZo-14" value="" style="shape=parallelogram;perimeter=parallelogramPerimeter;whiteSpace=wrap;html=1;fixedSize=1;" vertex="1" parent="1">
          <mxGeometry x="740" y="290" width="120" height="60" as="geometry" />
        </mxCell>
        <mxCell id="fqFgPf6x8nLVEVHRykZo-15" value="" style="shape=parallelogram;perimeter=parallelogramPerimeter;whiteSpace=wrap;html=1;fixedSize=1;" vertex="1" parent="1">
          <mxGeometry x="720" y="300" width="120" height="60" as="geometry" />
        </mxCell>
        <mxCell id="fqFgPf6x8nLVEVHRykZo-16" value="" style="shape=parallelogram;perimeter=parallelogramPerimeter;whiteSpace=wrap;html=1;fixedSize=1;" vertex="1" parent="1">
          <mxGeometry x="700" y="320" width="120" height="60" as="geometry" />
        </mxCell>
        <mxCell id="fqFgPf6x8nLVEVHRykZo-17" value="Queue" style="rounded=1;whiteSpace=wrap;html=1;" vertex="1" parent="1">
          <mxGeometry x="700" y="450" width="120" height="70" as="geometry" />
        </mxCell>
        <mxCell id="fqFgPf6x8nLVEVHRykZo-20" value="Validator" style="rhombus;whiteSpace=wrap;html=1;" vertex="1" parent="1">
          <mxGeometry x="730" y="10" width="110" height="100" as="geometry" />
        </mxCell>
        <mxCell id="fqFgPf6x8nLVEVHRykZo-21" value="" style="endArrow=classic;html=1;rounded=0;exitX=1;exitY=0;exitDx=0;exitDy=0;entryX=0;entryY=1;entryDx=0;entryDy=0;" edge="1" parent="1" source="fqFgPf6x8nLVEVHRykZo-5" target="fqFgPf6x8nLVEVHRykZo-20">
          <mxGeometry width="50" height="50" relative="1" as="geometry">
            <mxPoint x="600" y="110" as="sourcePoint" />
            <mxPoint x="650" y="60" as="targetPoint" />
          </mxGeometry>
        </mxCell>
        <mxCell id="fqFgPf6x8nLVEVHRykZo-22" value="" style="endArrow=classic;html=1;rounded=0;exitX=1;exitY=1;exitDx=0;exitDy=0;entryX=0;entryY=0;entryDx=0;entryDy=15;entryPerimeter=0;" edge="1" parent="1" source="fqFgPf6x8nLVEVHRykZo-20" target="fqFgPf6x8nLVEVHRykZo-12">
          <mxGeometry width="50" height="50" relative="1" as="geometry">
            <mxPoint x="880" y="80" as="sourcePoint" />
            <mxPoint x="930" y="30" as="targetPoint" />
          </mxGeometry>
        </mxCell>
        <mxCell id="fqFgPf6x8nLVEVHRykZo-23" value="Bucket" style="sketch=0;outlineConnect=0;fontColor=#232F3E;gradientColor=none;strokeColor=#232F3E;fillColor=#ffffff;dashed=0;verticalLabelPosition=bottom;verticalAlign=top;align=center;html=1;fontSize=12;fontStyle=0;aspect=fixed;shape=mxgraph.aws4.resourceIcon;resIcon=mxgraph.aws4.bucket;" vertex="1" parent="1">
          <mxGeometry x="1110" y="265" width="110" height="110" as="geometry" />
        </mxCell>
        <mxCell id="fqFgPf6x8nLVEVHRykZo-26" value="" style="rounded=1;whiteSpace=wrap;html=1;" vertex="1" parent="1">
          <mxGeometry x="900" y="20" width="120" height="60" as="geometry" />
        </mxCell>
        <mxCell id="fqFgPf6x8nLVEVHRykZo-27" value="" style="shape=parallelogram;perimeter=parallelogramPerimeter;whiteSpace=wrap;html=1;fixedSize=1;" vertex="1" parent="1">
          <mxGeometry x="1130" y="10" width="120" height="60" as="geometry" />
        </mxCell>
        <mxCell id="fqFgPf6x8nLVEVHRykZo-29" value="" style="shape=parallelogram;perimeter=parallelogramPerimeter;whiteSpace=wrap;html=1;fixedSize=1;" vertex="1" parent="1">
          <mxGeometry x="1120" y="20" width="120" height="60" as="geometry" />
        </mxCell>
        <mxCell id="fqFgPf6x8nLVEVHRykZo-30" value="" style="endArrow=classic;html=1;rounded=0;exitX=1;exitY=0.5;exitDx=0;exitDy=0;" edge="1" parent="1" source="fqFgPf6x8nLVEVHRykZo-26" target="fqFgPf6x8nLVEVHRykZo-29">
          <mxGeometry width="50" height="50" relative="1" as="geometry">
            <mxPoint x="1070" y="60" as="sourcePoint" />
            <mxPoint x="1120" y="10" as="targetPoint" />
          </mxGeometry>
        </mxCell>
        <mxCell id="fqFgPf6x8nLVEVHRykZo-32" value="" style="endArrow=classic;html=1;rounded=0;entryX=0.5;entryY=1;entryDx=0;entryDy=0;exitX=0.5;exitY=0;exitDx=0;exitDy=0;exitPerimeter=0;" edge="1" parent="1" source="fqFgPf6x8nLVEVHRykZo-12" target="fqFgPf6x8nLVEVHRykZo-26">
          <mxGeometry width="50" height="50" relative="1" as="geometry">
            <mxPoint x="1020" y="160" as="sourcePoint" />
            <mxPoint x="1070" y="110" as="targetPoint" />
          </mxGeometry>
        </mxCell>
        <mxCell id="fqFgPf6x8nLVEVHRykZo-33" value="" style="endArrow=classic;html=1;rounded=0;exitX=0.5;exitY=1;exitDx=0;exitDy=0;entryX=1;entryY=0.5;entryDx=0;entryDy=0;entryPerimeter=0;" edge="1" parent="1" source="fqFgPf6x8nLVEVHRykZo-29" target="fqFgPf6x8nLVEVHRykZo-12">
          <mxGeometry width="50" height="50" relative="1" as="geometry">
            <mxPoint x="1130" y="180" as="sourcePoint" />
            <mxPoint x="1180" y="130" as="targetPoint" />
            <Array as="points">
              <mxPoint x="1180" y="200" />
            </Array>
          </mxGeometry>
        </mxCell>
        <mxCell id="fqFgPf6x8nLVEVHRykZo-34" value="" style="endArrow=classic;html=1;rounded=0;exitX=0.145;exitY=0;exitDx=0;exitDy=4.35;exitPerimeter=0;entryX=1;entryY=0.75;entryDx=0;entryDy=0;" edge="1" parent="1" source="fqFgPf6x8nLVEVHRykZo-13" target="fqFgPf6x8nLVEVHRykZo-15">
          <mxGeometry width="50" height="50" relative="1" as="geometry">
            <mxPoint x="990" y="430" as="sourcePoint" />
            <mxPoint x="1040" y="380" as="targetPoint" />
          </mxGeometry>
        </mxCell>
        <mxCell id="fqFgPf6x8nLVEVHRykZo-35" value="" style="endArrow=classic;html=1;rounded=0;exitX=0.5;exitY=0;exitDx=0;exitDy=0;entryX=0.5;entryY=1;entryDx=0;entryDy=0;" edge="1" parent="1" source="fqFgPf6x8nLVEVHRykZo-17" target="fqFgPf6x8nLVEVHRykZo-16">
          <mxGeometry width="50" height="50" relative="1" as="geometry">
            <mxPoint x="790" y="450" as="sourcePoint" />
            <mxPoint x="840" y="400" as="targetPoint" />
          </mxGeometry>
        </mxCell>
      </root>
    </mxGraphModel>
  </diagram>
</mxfile>
